<svg width="22" height="26" viewBox="0 0 22 26" fill="none" xmlns="http://www.w3.org/2000/svg">
<path d="M5.8237 0C5.13724 0 4.47889 0.260884 3.99349 0.725259C3.50809 1.18964 3.23539 1.81946 3.23539 2.47619C3.23539 3.13292 3.50809 3.76275 3.99349 4.22712C4.47889 4.6915 5.13724 4.95238 5.8237 4.95238H16.1769C16.5168 4.95238 16.8534 4.88833 17.1675 4.76389C17.4815 4.63945 17.7668 4.45706 18.0072 4.22712C18.2475 3.99719 18.4382 3.72421 18.5682 3.42379C18.6983 3.12336 18.7653 2.80137 18.7653 2.47619C18.7653 2.15101 18.6983 1.82902 18.5682 1.52859C18.4382 1.22817 18.2475 0.955195 18.0072 0.725259C17.7668 0.495325 17.4815 0.31293 17.1675 0.188489C16.8534 0.0640486 16.5168 0 16.1769 0H5.8237Z" fill="#0069AB"/>
<path fill-rule="evenodd" clip-rule="evenodd" d="M5.45921 7.42857C5.07227 7.42868 4.69028 7.51178 4.34134 7.67176C3.9924 7.83175 3.68529 8.06467 3.44281 8.35314L0.570292 11.7723C0.20099 12.2122 -0.000208487 12.7599 1.62119e-07 13.3241V23.5238C1.62119e-07 24.1805 0.272696 24.8104 0.758099 25.2747C1.2435 25.7391 1.90185 26 2.58831 26H19.4117C20.0982 26 20.7565 25.7391 21.2419 25.2747C21.7273 24.8104 22 24.1805 22 23.5238V13.3238C22.0002 12.7596 21.7989 12.2121 21.4296 11.7722L18.5577 8.35302C18.3151 8.06432 18.0078 7.8314 17.6585 7.67141C17.3093 7.51145 16.9269 7.42847 16.5397 7.42857H5.45921ZM12.2945 12.9999C12.2945 12.3161 11.715 11.7618 11.0003 11.7618C10.2856 11.7618 9.70614 12.3161 9.70614 12.9999V15.4761H7.11783C6.40309 15.4761 5.82367 16.0304 5.82367 16.7142C5.82367 17.398 6.40309 17.9523 7.11783 17.9523H9.70614V20.4285C9.70614 21.1123 10.2856 21.6666 11.0003 21.6666C11.715 21.6666 12.2945 21.1123 12.2945 20.4285V17.9523H14.8828C15.5975 17.9523 16.1769 17.398 16.1769 16.7142C16.1769 16.0304 15.5975 15.4761 14.8828 15.4761H12.2945V12.9999Z" fill="#0069AB"/>
</svg>
