<svg width="22" height="23" viewBox="0 0 22 23" fill="none" xmlns="http://www.w3.org/2000/svg">
<path d="M14.6676 15.9853L16.562 14.0902C16.8172 13.8381 17.14 13.6655 17.4913 13.5934C17.8426 13.5213 18.2072 13.5528 18.541 13.6841L20.8498 14.6063C21.1871 14.7432 21.4763 14.977 21.681 15.2781C21.8857 15.5793 21.9967 15.9343 22 16.2984V20.5287C21.998 20.7764 21.946 21.0212 21.847 21.2482C21.748 21.4753 21.6041 21.6799 21.4239 21.8499C21.2438 22.0198 21.0311 22.1515 20.7987 22.2371C20.5663 22.3227 20.3191 22.3603 20.0718 22.3477C3.89312 21.3409 0.628639 7.63472 0.0112629 2.38914C-0.0173962 2.13155 0.00878882 1.8708 0.0880951 1.62406C0.167401 1.37731 0.298031 1.15016 0.471392 0.95755C0.644752 0.764939 0.856914 0.611231 1.09392 0.506538C1.33092 0.401846 1.5874 0.348542 1.84648 0.350132H5.93131C6.29582 0.351212 6.65168 0.461362 6.9531 0.666415C7.25453 0.871468 7.48774 1.16205 7.62275 1.50078L8.54458 3.81052C8.68011 4.14308 8.71469 4.50822 8.644 4.86033C8.5733 5.21243 8.40047 5.53589 8.14709 5.79031L6.25268 7.68549C6.25268 7.68549 7.34366 15.0716 14.6676 15.9853Z" fill="url(#paint0_linear_76_537)"/>
<defs>
<linearGradient id="paint0_linear_76_537" x1="-121.5" y1="14.3501" x2="13.9463" y2="31.9253" gradientUnits="userSpaceOnUse">
<stop stop-color="#007DAA"/>
<stop offset="0.626806" stop-color="#15B2FF"/>
</linearGradient>
</defs>
</svg>
