<svg width="24" height="26" viewBox="0 0 24 26" fill="none" xmlns="http://www.w3.org/2000/svg">
<path d="M18.45 24.9068L19.83 23.5477L14.49 18.2886L13.11 19.6477C12.37 20.3765 12 21.253 12 22.2773C12 23.3015 12.37 24.178 13.11 24.9068C13.85 25.6356 14.74 26 15.78 26C16.82 26 17.71 25.6356 18.45 24.9068ZM21.51 21.8932L22.89 20.5341C23.63 19.8053 24 18.9288 24 17.9045C24 16.8803 23.63 16.0038 22.89 15.275C22.15 14.5462 21.26 14.1818 20.22 14.1818C19.18 14.1818 18.29 14.5462 17.55 15.275L16.17 16.6341L21.51 21.8932ZM4.8 9.45455H16.8V7.09091H4.8V9.45455ZM10.8 3.84091C11.06 3.84091 11.2752 3.757 11.4456 3.58918C11.616 3.42136 11.7008 3.20982 11.7 2.95455C11.6992 2.69927 11.614 2.48773 11.4444 2.31991C11.2748 2.15209 11.06 2.06818 10.8 2.06818C10.54 2.06818 10.3252 2.15209 10.1556 2.31991C9.986 2.48773 9.9008 2.69927 9.9 2.95455C9.8992 3.20982 9.9844 3.42176 10.1556 3.59036C10.3268 3.75897 10.5416 3.84248 10.8 3.84091ZM9.75 23.6364H2.4C1.74 23.6364 1.1752 23.4051 0.7056 22.9426C0.236 22.4802 0.0008 21.9235 0 21.2727V4.72727C0 4.07727 0.2352 3.52103 0.7056 3.05855C1.176 2.59606 1.7408 2.36442 2.4 2.36364H7.44C7.7 1.65455 8.1352 1.08333 8.7456 0.65C9.356 0.216667 10.0408 0 10.8 0C11.5592 0 12.2444 0.216667 12.8556 0.65C13.4668 1.08333 13.9016 1.65455 14.16 2.36364H19.2C19.86 2.36364 20.4252 2.59527 20.8956 3.05855C21.366 3.52182 21.6008 4.07806 21.6 4.72727V11.9659C20.76 11.7689 19.9252 11.754 19.0956 11.921C18.266 12.088 17.5008 12.3988 16.8 12.8535V11.8182H4.8V14.1818H15.27L12.87 16.5455H4.8V18.9091H10.65C10.19 19.5985 9.8748 20.3521 9.7044 21.1699C9.534 21.9877 9.5496 22.8099 9.7512 23.6364" fill="#0069AB"/>
</svg>
