<svg width="26" height="26" viewBox="0 0 26 26" fill="none" xmlns="http://www.w3.org/2000/svg">
<path d="M26 5.57136C26 4.58627 25.6087 3.64152 24.9121 2.94496C24.2155 2.24839 23.2708 1.85706 22.2857 1.85706H21.3571V0.954606C21.3571 0.454917 20.9729 0.0260314 20.4733 0.00107597C20.3477 -0.00497323 20.2222 0.0145311 20.1044 0.0584072C19.9867 0.102283 19.879 0.169618 19.788 0.25633C19.697 0.343043 19.6246 0.447328 19.575 0.562866C19.5255 0.678405 19.5 0.802792 19.5 0.92849V1.85706H6.5V0.954606C6.5 0.454917 6.1158 0.0260314 5.61612 0.00107597C5.49056 -0.00497323 5.36509 0.0145311 5.2473 0.0584072C5.12951 0.102283 5.02185 0.169618 4.93085 0.25633C4.83986 0.343043 4.76741 0.447328 4.7179 0.562866C4.6684 0.678405 4.64287 0.802792 4.64286 0.92849V1.85706H3.71429C2.7292 1.85706 1.78445 2.24839 1.08789 2.94496C0.391325 3.64152 0 4.58627 0 5.57136V6.26779C0 6.32936 0.0244579 6.38841 0.0679931 6.43194C0.111528 6.47548 0.170575 6.49994 0.232143 6.49994H25.7679C25.8294 6.49994 25.8885 6.47548 25.932 6.43194C25.9755 6.38841 26 6.32936 26 6.26779V5.57136ZM0 22.2857C0 23.2708 0.391325 24.2155 1.08789 24.9121C1.78445 25.6087 2.7292 26 3.71429 26H22.2857C23.2708 26 24.2155 25.6087 24.9121 24.9121C25.6087 24.2155 26 23.2708 26 22.2857V8.53119C26 8.48502 25.9817 8.44073 25.949 8.40808C25.9164 8.37543 25.8721 8.35709 25.8259 8.35709H0.174107C0.127931 8.35709 0.0836463 8.37543 0.0509949 8.40808C0.0183435 8.44073 0 8.48502 0 8.53119V22.2857ZM19.9643 10.2142C20.2398 10.2142 20.5091 10.2959 20.7381 10.449C20.9672 10.602 21.1457 10.8196 21.2511 11.0741C21.3565 11.3286 21.3841 11.6086 21.3304 11.8788C21.2766 12.149 21.144 12.3972 20.9492 12.592C20.7544 12.7868 20.5062 12.9194 20.236 12.9732C19.9658 13.0269 19.6858 12.9994 19.4313 12.8939C19.1768 12.7885 18.9592 12.61 18.8062 12.3809C18.6531 12.1519 18.5714 11.8826 18.5714 11.6071C18.5714 11.2377 18.7182 10.8834 18.9794 10.6222C19.2406 10.361 19.5949 10.2142 19.9643 10.2142ZM19.9643 14.8571C20.2398 14.8571 20.5091 14.9388 20.7381 15.0918C20.9672 15.2449 21.1457 15.4624 21.2511 15.7169C21.3565 15.9715 21.3841 16.2515 21.3304 16.5217C21.2766 16.7919 21.144 17.0401 20.9492 17.2349C20.7544 17.4297 20.5062 17.5623 20.236 17.6161C19.9658 17.6698 19.6858 17.6422 19.4313 17.5368C19.1768 17.4314 18.9592 17.2529 18.8062 17.0238C18.6531 16.7947 18.5714 16.5254 18.5714 16.25C18.5714 15.8806 18.7182 15.5263 18.9794 15.2651C19.2406 15.0039 19.5949 14.8571 19.9643 14.8571ZM15.3214 10.2142C15.5969 10.2142 15.8662 10.2959 16.0953 10.449C16.3243 10.602 16.5028 10.8196 16.6083 11.0741C16.7137 11.3286 16.7413 11.6086 16.6875 11.8788C16.6338 12.149 16.5011 12.3972 16.3063 12.592C16.1115 12.7868 15.8633 12.9194 15.5932 12.9732C15.323 13.0269 15.0429 12.9994 14.7884 12.8939C14.5339 12.7885 14.3164 12.61 14.1633 12.3809C14.0103 12.1519 13.9286 11.8826 13.9286 11.6071C13.9286 11.2377 14.0753 10.8834 14.3365 10.6222C14.5977 10.361 14.952 10.2142 15.3214 10.2142ZM15.3214 14.8571C15.5969 14.8571 15.8662 14.9388 16.0953 15.0918C16.3243 15.2449 16.5028 15.4624 16.6083 15.7169C16.7137 15.9715 16.7413 16.2515 16.6875 16.5217C16.6338 16.7919 16.5011 17.0401 16.3063 17.2349C16.1115 17.4297 15.8633 17.5623 15.5932 17.6161C15.323 17.6698 15.0429 17.6422 14.7884 17.5368C14.5339 17.4314 14.3164 17.2529 14.1633 17.0238C14.0103 16.7947 13.9286 16.5254 13.9286 16.25C13.9286 15.8806 14.0753 15.5263 14.3365 15.2651C14.5977 15.0039 14.952 14.8571 15.3214 14.8571ZM15.3214 19.5C15.5969 19.5 15.8662 19.5817 16.0953 19.7347C16.3243 19.8878 16.5028 20.1053 16.6083 20.3598C16.7137 20.6143 16.7413 20.8944 16.6875 21.1646C16.6338 21.4348 16.5011 21.6829 16.3063 21.8777C16.1115 22.0725 15.8633 22.2052 15.5932 22.2589C15.323 22.3127 15.0429 22.2851 14.7884 22.1797C14.5339 22.0743 14.3164 21.8957 14.1633 21.6667C14.0103 21.4376 13.9286 21.1683 13.9286 20.8928C13.9286 20.5234 14.0753 20.1692 14.3365 19.9079C14.5977 19.6467 14.952 19.5 15.3214 19.5ZM10.6786 14.8571C10.9541 14.8571 11.2233 14.9388 11.4524 15.0918C11.6815 15.2449 11.86 15.4624 11.9654 15.7169C12.0708 15.9715 12.0984 16.2515 12.0447 16.5217C11.9909 16.7919 11.8583 17.0401 11.6635 17.2349C11.4687 17.4297 11.2205 17.5623 10.9503 17.6161C10.6801 17.6698 10.4001 17.6422 10.1455 17.5368C9.89104 17.4314 9.6735 17.2529 9.52045 17.0238C9.3674 16.7947 9.28571 16.5254 9.28571 16.25C9.28571 15.8806 9.43246 15.5263 9.69367 15.2651C9.95488 15.0039 10.3092 14.8571 10.6786 14.8571ZM10.6786 19.5C10.9541 19.5 11.2233 19.5817 11.4524 19.7347C11.6815 19.8878 11.86 20.1053 11.9654 20.3598C12.0708 20.6143 12.0984 20.8944 12.0447 21.1646C11.9909 21.4348 11.8583 21.6829 11.6635 21.8777C11.4687 22.0725 11.2205 22.2052 10.9503 22.2589C10.6801 22.3127 10.4001 22.2851 10.1455 22.1797C9.89104 22.0743 9.6735 21.8957 9.52045 21.6667C9.3674 21.4376 9.28571 21.1683 9.28571 20.8928C9.28571 20.5234 9.43246 20.1692 9.69367 19.9079C9.95488 19.6467 10.3092 19.5 10.6786 19.5ZM6.03571 14.8571C6.3112 14.8571 6.58049 14.9388 6.80954 15.0918C7.0386 15.2449 7.21712 15.4624 7.32255 15.7169C7.42797 15.9715 7.45555 16.2515 7.40181 16.5217C7.34806 16.7919 7.21541 17.0401 7.02061 17.2349C6.82582 17.4297 6.57764 17.5623 6.30745 17.6161C6.03726 17.6698 5.7572 17.6422 5.50269 17.5368C5.24818 17.4314 5.03064 17.2529 4.8776 17.0238C4.72455 16.7947 4.64286 16.5254 4.64286 16.25C4.64286 15.8806 4.7896 15.5263 5.05082 15.2651C5.31203 15.0039 5.66631 14.8571 6.03571 14.8571ZM6.03571 19.5C6.3112 19.5 6.58049 19.5817 6.80954 19.7347C7.0386 19.8878 7.21712 20.1053 7.32255 20.3598C7.42797 20.6143 7.45555 20.8944 7.40181 21.1646C7.34806 21.4348 7.21541 21.6829 7.02061 21.8777C6.82582 22.0725 6.57764 22.2052 6.30745 22.2589C6.03726 22.3127 5.7572 22.2851 5.50269 22.1797C5.24818 22.0743 5.03064 21.8957 4.8776 21.6667C4.72455 21.4376 4.64286 21.1683 4.64286 20.8928C4.64286 20.5234 4.7896 20.1692 5.05082 19.9079C5.31203 19.6467 5.66631 19.5 6.03571 19.5Z" fill="#0069AB"/>
</svg>
