<svg width="28" height="25" viewBox="0 0 28 25" fill="none" xmlns="http://www.w3.org/2000/svg">
<path d="M25.2 0H2.8C1.26 0 0.014 1.21072 0.014 2.69048L0 23.6494C0 24.8466 1.512 25.452 2.394 24.6045L5.6 21.5239H25.2C26.74 21.5239 28 20.3132 28 18.8334V2.69048C28 1.21072 26.74 0 25.2 0ZM18.81 12.6542L17.2 12.1206V13.7977C17.2 14.5375 16.57 15.1429 15.8 15.1429H9.4C8.63 15.1429 8 14.5375 8 13.7977V7.72621C8 6.98633 8.63 6.38097 9.4 6.38097H15.8C16.57 6.38097 17.2 6.98633 17.2 7.72621V9.40324L18.81 8.86967C19.244 8.43919 20 8.7486 20 9.3405V12.1699C20 12.7753 19.244 13.0847 18.81 12.6542Z" fill="#0069AB"/>
</svg>
