<svg width="20" height="26" viewBox="0 0 20 26" fill="none" xmlns="http://www.w3.org/2000/svg">
<path d="M11.6667 6.90625V2C11.6667 0.89543 10.7712 0 9.66667 0H1.5C0.807292 0 0 0.824609 0 1.5L0 24.5C0 25.1754 0.807292 26 1.5 26H18.5C19.1927 26 20 25.1754 20 24.5V10.125C20 9.02043 19.1046 8.125 18 8.125H12.9167C12.2292 8.125 11.6667 7.57656 11.6667 6.90625ZM15.2359 16.0205L15.825 16.5948C16.1505 16.9122 16.1505 17.4266 15.825 17.744L14.6349 18.9043C14.4336 19.1006 14.4336 19.4241 14.6349 19.6203L15.8333 20.7888C16.1589 21.1062 16.1589 21.6206 15.8333 21.938L15.2443 22.5123C14.9187 22.8297 14.3911 22.8297 14.0656 22.5123L12.8491 21.3258C12.6549 21.1364 12.3451 21.1364 12.1509 21.3257L10.9344 22.5118C10.6089 22.8292 10.0812 22.8292 9.75573 22.5118L9.16667 21.9375C8.84115 21.6201 8.84115 21.1057 9.16667 20.7883L10.3651 19.6199C10.5664 19.4236 10.5663 19.1001 10.3651 18.9038L7.78834 16.392C7.69497 16.3009 7.56973 16.25 7.43932 16.25H7.16667C6.89052 16.25 6.66667 16.4739 6.66667 16.75V18.6875C6.66667 19.1364 6.29375 19.5 5.83333 19.5H5C4.53958 19.5 4.16667 19.1364 4.16667 18.6875V10.5625C4.16667 10.1136 4.53958 9.75 5 9.75H9.16667C11.0078 9.75 12.5 11.2049 12.5 13C12.5 13.9891 12.0412 14.8669 11.324 15.4599C11.0633 15.6754 11.0044 16.0806 11.2466 16.3167L12.151 17.1985C12.3451 17.3878 12.6549 17.3878 12.849 17.1985L14.0573 16.0205C14.3828 15.7031 14.9104 15.7031 15.2359 16.0205ZM9.16667 13.8125H7.47917C7.03044 13.8125 6.66667 13.4487 6.66667 13C6.66667 12.5513 7.03044 12.1875 7.47917 12.1875H9.16667C9.62604 12.1875 10 12.5521 10 13C10 13.4479 9.62604 13.8125 9.16667 13.8125ZM20 6.19023C20 6.36131 19.8613 6.5 19.6902 6.5H15.3333C14.2288 6.5 13.3333 5.60457 13.3333 4.5V0.317709C13.3333 0.142243 13.4756 0 13.651 0C13.9844 0 14.3021 0.126953 14.5365 0.355469L19.6354 5.33203C19.8698 5.56055 20 5.87031 20 6.19023Z" fill="#0069AB"/>
</svg>
